<svg width="383" height="1128" viewBox="0 0 383 1128" fill="none" xmlns="http://www.w3.org/2000/svg">
  <g opacity="0.1">
    <path fill-rule="evenodd" clip-rule="evenodd" d="M722.644 334.603H462.149L381.635 582.591L592.385 735.855L803.147 582.591L722.644 334.603ZM368.164 586.959L453.819 323.125H730.967L816.622 586.959L592.388 750.042L368.164 586.959Z" fill="white"/>
    <path fill-rule="evenodd" clip-rule="evenodd" d="M733.878 320.408H450.903L363.429 589.633L592.385 756.039L821.352 589.633L733.878 320.408ZM350.539 593.831L442.92 309.417H741.855L834.247 593.831L592.388 769.625L350.539 593.831Z" fill="white"/>
    <path fill-rule="evenodd" clip-rule="evenodd" d="M745.132 304.232H439.663L345.245 594.747L592.392 774.275L839.55 594.747L745.132 304.232ZM332.914 598.752L432.037 293.75H752.75L851.872 598.752L592.393 787.25L332.914 598.752Z" fill="white"/>
    <path fill-rule="evenodd" clip-rule="evenodd" d="M756.374 288.089H428.414L327.039 599.846L592.394 792.511L857.749 599.846L756.374 288.089ZM315.289 603.659L421.144 278.083H763.642L869.497 603.659L592.393 804.875L315.289 603.659Z" fill="white"/>
    <path fill-rule="evenodd" clip-rule="evenodd" d="M767.624 271.925H417.157L308.833 604.93L592.396 810.747L875.96 604.93L767.624 271.925ZM297.664 608.562L410.256 262.417H774.519L887.122 608.562L592.393 822.5L297.664 608.562Z" fill="white"/>
    <path fill-rule="evenodd" clip-rule="evenodd" d="M778.883 255.739H405.924L290.642 610.027L592.392 828.993L894.166 610.027L778.883 255.739ZM280.039 613.479L399.375 246.75H785.422L904.747 613.479L592.393 840.125L280.039 613.479Z" fill="white"/>
    <path fill-rule="evenodd" clip-rule="evenodd" d="M790.116 239.598H394.67L272.443 615.126L592.387 847.228L912.343 615.126L790.116 239.598ZM262.414 618.374L388.469 231.083H796.317L922.372 618.374L592.388 857.75L262.414 618.374Z" fill="white"/>
    <path fill-rule="evenodd" clip-rule="evenodd" d="M801.379 223.434H383.425L254.236 620.239L592.402 865.474L930.568 620.239L801.379 223.434ZM247.15 624.998L244.789 623.284L377.581 215.417H807.228L939.997 623.284L592.399 875.375L247.15 624.998Z" fill="white"/>
    <path fill-rule="evenodd" clip-rule="evenodd" d="M812.607 207.282H372.169L236.022 625.316L592.388 883.698L948.753 625.316L812.607 207.282ZM227.164 628.202L366.678 199.75H818.086L957.622 628.202L592.388 893L227.164 628.202Z" fill="white"/>
    <path fill-rule="evenodd" clip-rule="evenodd" d="M823.87 193.066H360.919L217.824 632.387L592.395 903.89L966.966 632.387L823.87 193.066ZM209.539 635.059L355.788 186.042H828.999L975.247 635.059L592.393 912.583L209.539 635.059Z" fill="white"/>
    <path fill-rule="evenodd" clip-rule="evenodd" d="M835.504 176.903H351.252L201.578 637.482L593.372 922.125L985.178 637.482L835.504 176.903ZM193.875 639.973L346.502 170.375H840.248L992.875 639.973L593.369 930.208L193.875 639.973Z" fill="white"/>
    <path fill-rule="evenodd" clip-rule="evenodd" d="M846.751 160.762H339.992L183.357 642.569L593.372 940.359L1003.4 642.569L846.751 160.762ZM178.02 646.177L176.25 644.88L335.614 154.708H851.147L1010.5 644.88L593.369 947.833L178.02 646.177Z" fill="white"/>
    <path fill-rule="evenodd" clip-rule="evenodd" d="M857.995 144.588H328.761L165.181 647.667L593.378 958.593L1021.59 647.667L857.995 144.588ZM158.625 649.786L324.72 139.042H862.041L1028.12 649.786L593.375 965.458L158.625 649.786Z" fill="white"/>
    <path fill-rule="evenodd" clip-rule="evenodd" d="M1039.8 652.772L869.254 128.436H317.512L146.959 652.772L593.378 976.838L1039.8 652.772ZM142.489 655.793L141 654.711L313.245 125.122L313.821 123.375H872.929L1045.75 654.711L594.864 982.012L593.375 983.083L142.489 655.793Z" fill="white"/>
    <path fill-rule="evenodd" clip-rule="evenodd" d="M880.505 112.274H306.251L128.76 657.856L593.384 995.061L1058 657.856L880.505 112.274ZM123.375 659.614L302.93 107.708H883.82L1063.38 659.614L593.381 1000.71L123.375 659.614Z" fill="white"/>
    <path fill-rule="evenodd" clip-rule="evenodd" d="M891.745 96.1106H295.001L110.539 662.972L593.379 1013.31L1076.21 662.972L891.745 96.1106ZM106.946 665.396L105.75 664.539L291.566 93.4506L292.029 92.0416H894.721L1080.54 663.13L1081 664.539L593.375 1018.33L106.946 665.396Z" fill="white"/>
    <path fill-rule="evenodd" clip-rule="evenodd" d="M903.001 81.9062H283.743L92.3324 670.014L593.367 1033.49L1094.41 670.014L903.001 81.9062ZM89.1747 672.144L88.125 671.378L280.732 79.5732L281.15 78.3334H905.6L1098.23 670.138L1098.62 671.378L593.369 1037.92L89.1747 672.144Z" fill="white"/>
    <path fill-rule="evenodd" clip-rule="evenodd" d="M1112.59 675.117L914.247 65.7772H272.512L74.1566 675.117L593.374 1051.72L1112.59 675.117ZM71.4257 676.954L70.5 676.289L269.917 63.7486L270.267 62.6666H916.495L1115.9 675.219L1116.25 676.289L594.289 1054.87L593.375 1055.54L71.4257 676.954Z" fill="white"/>
    <path fill-rule="evenodd" clip-rule="evenodd" d="M925.499 49.6035H261.251L55.9349 680.214L593.37 1069.97L1130.8 680.214L925.499 49.6035ZM53.6315 681.769L52.875 681.206L259.072 47.9129L259.354 47H927.385L1133.59 680.316L1133.88 681.206L593.369 1073.17L53.6315 681.769Z" fill="white"/>
    <path fill-rule="evenodd" clip-rule="evenodd" d="M1149.02 685.313L936.753 33.4408H250.013L37.7362 685.313L593.377 1088.18L1149.02 685.313ZM35.8823 686.564L35.25 686.102L248.238 32.0546L248.475 31.3334H938.286L1151.26 685.381L1151.5 686.102L594.007 1090.33L593.375 1090.79L35.8823 686.564Z" fill="white"/>
    <path fill-rule="evenodd" clip-rule="evenodd" d="M1167.2 691.608L947.989 17.2698H238.753L19.5298 691.608L593.36 1108.37L1167.2 691.608ZM18.1106 692.567L17.625 692.229L237.583 15.6666H949.167L1169.12 692.229L593.838 1110.03L593.364 1110.38L18.1106 692.567Z" fill="white"/>
    <path fill-rule="evenodd" clip-rule="evenodd" d="M226.683 0L226.559 0.395108L0 697.129L0.338839 697.377L593.375 1128L593.703 1127.75L1186.75 697.129L1186.64 696.745L960.078 0H226.683ZM1.3234 696.7L227.521 1.11758H959.244L1185.43 696.7L593.377 1126.59L1.3234 696.7Z" fill="white"/>
  </g>
</svg>
