<svg width="50" height="50" viewBox="0 0 50 50" fill="none" xmlns="http://www.w3.org/2000/svg">
<circle cx="25" cy="25" r="25" fill="#09232D"/>
<path d="M31.791 22.0215C31.791 24.7081 30.4683 26.7762 28.4559 28.1371C27.9872 28.4541 27.7528 28.6126 27.6371 28.7928C27.5214 28.973 27.482 29.2097 27.4031 29.6829L27.3417 30.0508C27.2032 30.8822 27.1339 31.2978 26.8425 31.5447C26.5511 31.7916 26.1297 31.7916 25.2867 31.7916H22.5664C21.7236 31.7916 21.3022 31.7916 21.0108 31.5447C20.7193 31.2978 20.6501 30.8822 20.5115 30.0508L20.4502 29.6829C20.3716 29.2113 20.3323 28.9754 20.2178 28.7961C20.1033 28.6167 19.8684 28.4562 19.3986 28.135C17.4076 26.7741 16.166 24.7068 16.166 22.0215C16.166 17.6373 19.6638 14.0835 23.9785 14.0835C24.5136 14.0833 25.0361 14.1379 25.541 14.242" stroke="#F1FAFD" stroke-width="1.5625" stroke-linecap="round" stroke-linejoin="round"/>
<path d="M29.1868 14.0833L29.4555 14.8093C29.8078 15.7614 29.9839 16.2374 30.3312 16.5847C30.6785 16.932 31.1546 17.1081 32.1066 17.4604L32.8327 17.7291L32.1066 17.9978C31.1546 18.3501 30.6785 18.5262 30.3312 18.8735C29.9839 19.2207 29.8078 19.6968 29.4555 20.6488L29.1868 21.3749L28.9182 20.6488C28.5659 19.6968 28.3898 19.2207 28.0425 18.8735C27.6952 18.5262 27.2191 18.3501 26.2671 17.9978L25.541 17.7291L26.2671 17.4604C27.2191 17.1084 27.6952 16.932 28.0425 16.5847C28.3898 16.2374 28.5659 15.7614 28.9182 14.8093L29.1868 14.0833Z" fill="#09232D" stroke="#F1FAFD" stroke-width="1.5625" stroke-linejoin="round"/>
<path d="M26.0632 31.7917V32.8334C26.0632 33.8155 26.0632 34.3065 25.758 34.6116C25.4529 34.9167 24.9619 34.9167 23.9798 34.9167C22.9977 34.9167 22.5067 34.9167 22.2016 34.6116C21.8965 34.3065 21.8965 33.8155 21.8965 32.8334V31.7917" stroke="#F1FAFD" stroke-width="1.5625" stroke-linejoin="round"/>
</svg>
