<svg width="50" height="50" viewBox="0 0 50 50" fill="none" xmlns="http://www.w3.org/2000/svg">
<circle cx="25" cy="25" r="25" fill="#09232D"/>
<path d="M15.125 24.4891V27.1041C15.125 30.5414 15.125 32.2601 16.1928 33.328C17.2607 34.3958 18.9793 34.3958 22.4167 34.3958H26.5833C30.0206 34.3958 31.7393 34.3958 32.8072 33.328C33.875 32.2601 33.875 30.5414 33.875 27.1041V24.4891C33.875 22.7378 33.875 21.8622 33.5043 21.1042C33.1335 20.3462 32.4424 19.8086 31.06 18.7334L28.9767 17.113C26.8261 15.4404 25.7509 14.6041 24.5 14.6041C23.2491 14.6041 22.1738 15.4404 20.0234 17.113L17.94 18.7334C16.5576 19.8086 15.8664 20.3462 15.4957 21.1042C15.125 21.8622 15.125 22.7378 15.125 24.4891Z" fill="#F1FAFD" stroke="#F1FAFD" stroke-width="1.5" stroke-linecap="round" stroke-linejoin="round"/>
<path d="M27.625 29.7084C26.7922 30.3567 25.6981 30.75 24.5 30.75C23.3018 30.75 22.2078 30.3567 21.375 29.7084" stroke="#09232D" stroke-width="1.5" stroke-linecap="round" stroke-linejoin="round"/>
</svg>
